<svg width="137" height="56" viewBox="0 0 137 56" fill="#000" xmlns="http://www.w3.org/2000/svg">
<g clip-path="url(#clip0_69_34)">
<path d="M24.035 3.894C12.4907 4.71022 3.26795 13.933 2.45173 25.4773C2.38793 26.3781 3.09924 27.1452 4.00218 27.1452H24.1489C24.353 27.1452 24.5552 27.105 24.7438 27.0269C24.9324 26.9488 25.1037 26.8343 25.2481 26.69C25.3924 26.5457 25.5069 26.3743 25.585 26.1858C25.6632 25.9972 25.7034 25.7951 25.7034 25.5909V5.4442C25.7034 4.54125 24.9363 3.83019 24.0355 3.894H24.035ZM52.4827 25.6115C51.6664 14.0672 42.4437 4.84444 30.8994 4.02822C29.9986 3.96442 29.2315 4.67572 29.2315 5.57843V25.7254C29.2315 25.9295 29.2716 26.1317 29.3497 26.3202C29.4278 26.5088 29.5423 26.6802 29.6866 26.8246C29.831 26.9689 30.0023 27.0834 30.1909 27.1615C30.3795 27.2396 30.5816 27.2799 30.7857 27.2799H50.9322C51.8352 27.2799 52.5462 26.5128 52.4824 25.612L52.4827 25.6115ZM50.4783 30.4105C38.934 31.2267 29.7112 40.4495 28.895 51.9938C28.8312 52.8946 29.5425 53.6617 30.4454 53.6617H50.5922C50.7963 53.6617 50.9984 53.6215 51.187 53.5434C51.3756 53.4653 51.547 53.3509 51.6913 53.2065C51.8357 53.0622 51.9502 52.8909 52.0283 52.7023C52.1064 52.5137 52.1466 52.3116 52.1466 52.1075V31.9607C52.1466 31.0578 51.3796 30.3467 50.4787 30.4105H50.4783ZM2.45221 32.2802C3.26843 43.8245 12.4912 53.0473 24.0355 53.8635C24.9363 53.9273 25.7034 53.216 25.7034 52.313V32.1663C25.7034 31.9622 25.6632 31.7601 25.5851 31.5715C25.507 31.3829 25.3926 31.2115 25.2482 31.0672C25.1039 30.9228 24.9326 30.8083 24.744 30.7302C24.5554 30.6521 24.3533 30.6118 24.1492 30.6118H4.00264C3.09993 30.6118 2.38887 31.3789 2.45244 32.2797L2.45221 32.2802Z" fill="#037E46"/>
<path d="M63.2736 51.6495C62.281 51.6495 61.4579 51.5597 60.8041 51.3801C60.1519 51.199 59.6289 50.9737 59.235 50.7043C58.8396 50.4349 58.5363 50.1671 58.3252 49.9008C58.2559 49.8 58.1936 49.7023 58.1385 49.6078C58.0834 49.5148 58.044 49.4101 58.0204 49.2935C57.9888 49.136 57.9581 48.9304 57.9282 48.6767C57.8967 48.4231 57.8927 48.1285 57.9164 47.7929C57.9243 47.6511 57.951 47.5535 57.9967 47.4999C58.0519 47.4369 58.1417 47.3896 58.2661 47.3581C58.493 47.303 58.7884 47.2541 59.1523 47.2116C59.5162 47.1691 59.7761 47.1478 59.9321 47.1478C60.0959 47.1478 60.2283 47.1785 60.3291 47.24C60.4315 47.303 60.5528 47.4085 60.693 47.5566C60.849 47.7205 61.1192 47.93 61.5036 48.1852C61.8864 48.4388 62.4764 48.5657 63.2736 48.5657C64.0392 48.5657 64.6174 48.4058 65.0081 48.086C65.3988 47.7646 65.5941 47.3187 65.5941 46.7484C65.5941 46.4444 65.502 46.1569 65.3177 45.8859C65.1349 45.6165 64.8009 45.3471 64.3157 45.0777C63.832 44.8083 63.1404 44.5247 62.2409 44.227C60.7568 43.7276 59.6863 43.1069 59.0294 42.3648C58.3724 41.6213 58.044 40.5894 58.044 39.2692C58.044 38.1743 58.3094 37.2597 58.8403 36.5256C59.3728 35.7915 60.1078 35.2369 61.0451 34.862C61.9825 34.487 63.0648 34.2995 64.2921 34.2995C65.2389 34.2995 66.0226 34.4106 66.6434 34.6327C67.2641 34.8549 67.7469 35.1046 68.092 35.3818C68.4354 35.6607 68.6575 35.886 68.7583 36.0577C68.8214 36.1585 68.8623 36.2341 68.8812 36.2846C68.9017 36.3365 68.9159 36.4051 68.9238 36.4901C68.9474 36.7328 68.9553 37.0029 68.9474 37.3007C68.9395 37.5969 68.912 37.9324 68.8647 38.3074C68.8411 38.4334 68.7977 38.5193 68.7347 38.565C68.6811 38.6043 68.5953 38.624 68.4771 38.624C67.7194 38.6398 67.1333 38.6004 66.719 38.5059C66.5551 38.4681 66.4456 38.4295 66.3905 38.3901C66.3369 38.3507 66.2668 38.2885 66.1802 38.2034C66.0557 38.0537 65.858 37.8797 65.587 37.6812C65.3176 37.4811 64.886 37.381 64.2921 37.381C63.4713 37.381 62.8892 37.5669 62.5457 37.9387C62.2023 38.3105 62.0306 38.7264 62.0306 39.1865C62.0306 39.7331 62.2842 40.1609 62.7915 40.4696C63.3003 40.7784 64.1014 41.1282 65.1948 41.5189C66.1101 41.8402 66.8954 42.1884 67.5508 42.5634C68.2077 42.9383 68.7103 43.4188 69.0585 44.0049C69.4066 44.5909 69.5807 45.3644 69.5807 46.3254C69.5807 47.5212 69.305 48.5137 68.7536 49.303C68.2022 50.0938 67.4516 50.6822 66.5016 51.0682C65.5532 51.4558 64.4772 51.6495 63.2736 51.6495ZM79.7799 37.6386V50.7468C79.7799 50.9816 79.7311 51.1438 79.6334 51.2336C79.5357 51.3234 79.3695 51.3683 79.1348 51.3683H76.637C76.4022 51.3683 76.236 51.3234 76.1384 51.2336C76.0407 51.1438 75.9918 50.9816 75.9918 50.7468V37.6386H72.4992C72.3117 37.6386 72.1707 37.6079 72.0762 37.5465C71.8729 37.4047 71.6642 37.2361 71.4499 37.0407C71.2341 36.8454 71.0017 36.6115 70.7528 36.3389C70.674 36.2365 70.6347 36.1546 70.6347 36.0931C70.6347 36.0222 70.674 35.9435 70.7528 35.8568C71.0017 35.5843 71.2341 35.3503 71.4499 35.155C71.6642 34.9596 71.8729 34.7911 72.0762 34.6493C72.1864 34.5878 72.3274 34.5571 72.4992 34.5571H83.2844C83.4719 34.5571 83.6129 34.5878 83.7074 34.6493C83.9106 34.7911 84.121 34.9596 84.3384 35.155C84.5574 35.3503 84.7881 35.5843 85.0307 35.8568C85.1095 35.9592 85.1489 36.0419 85.1489 36.105C85.1489 36.1743 85.1095 36.2523 85.0307 36.3389C84.7881 36.6115 84.5574 36.8454 84.3384 37.0407C84.121 37.2361 83.9106 37.4047 83.7074 37.5465C83.5971 37.6079 83.4561 37.6386 83.2844 37.6386H79.7799ZM95.816 51.3683H89.92C89.115 51.3683 88.503 51.2667 88.0839 51.0635C87.6664 50.8603 87.3852 50.5278 87.2403 50.0662C87.0953 49.6046 87.0229 48.991 87.0229 48.2254V37.6977C87.0229 36.9163 87.0953 36.2972 87.2403 35.8403C87.3852 35.3834 87.6664 35.0549 88.0839 34.8549C88.503 34.6564 89.115 34.5571 89.92 34.5571H95.4285C95.6175 34.5571 95.7585 34.5878 95.8515 34.6493C96.0547 34.7911 96.2658 34.9596 96.4848 35.155C96.7038 35.3503 96.9345 35.5843 97.1772 35.8568C97.2544 35.9592 97.293 36.0419 97.293 36.105C97.293 36.1743 97.2544 36.2523 97.1772 36.3389C96.9345 36.6115 96.7038 36.8454 96.4848 37.0407C96.2658 37.2361 96.0547 37.4047 95.8515 37.5465C95.7428 37.6079 95.6017 37.6386 95.4285 37.6386H92.1461C91.6309 37.6386 91.2796 37.7481 91.0921 37.9671C90.9047 38.1861 90.8109 38.5618 90.8109 39.0943V41.3676H95.0196C95.2071 41.3676 95.3473 41.3991 95.4403 41.4621C95.6435 41.6024 95.8546 41.7701 96.0736 41.9655C96.2926 42.1608 96.5234 42.3956 96.766 42.6697C96.8448 42.7705 96.8841 42.8524 96.8841 42.9155C96.8841 42.9848 96.8448 43.0628 96.766 43.1494C96.5234 43.4235 96.2926 43.6583 96.0736 43.8536C95.8546 44.049 95.6435 44.2167 95.4403 44.357C95.3316 44.42 95.1914 44.4515 95.0196 44.4515H90.8109V46.8193C90.8109 47.3424 90.9047 47.7173 91.0921 47.9442C91.2796 48.171 91.6309 48.2845 92.1461 48.2845H95.816C96.0035 48.2845 96.1445 48.316 96.239 48.379C96.4422 48.5192 96.6534 48.687 96.8723 48.8823C97.0913 49.0777 97.3213 49.3124 97.5624 49.5865C97.6411 49.6874 97.6805 49.7693 97.6805 49.8323C97.6805 49.9016 97.6411 49.9796 97.5624 50.0662C97.3213 50.3404 97.0913 50.5751 96.8723 50.7705C96.6534 50.9658 96.4422 51.1336 96.239 51.2738C96.1287 51.3368 95.9877 51.3683 95.816 51.3683ZM106.637 51.3683H103.038C102.233 51.3683 101.621 51.2667 101.204 51.0635C100.785 50.8603 100.504 50.5278 100.36 50.0662C100.215 49.6046 100.143 48.991 100.143 48.2254V37.6977C100.143 36.9163 100.215 36.2972 100.36 35.8403C100.504 35.3834 100.785 35.0549 101.204 34.8549C101.621 34.6564 102.233 34.5571 103.038 34.5571H106.637C108.318 34.5571 109.789 34.8068 111.051 35.3062C112.313 35.8072 113.296 36.6532 114 37.8442C114.703 39.0368 115.054 40.6721 115.054 42.75C115.054 44.8296 114.703 46.5003 114 47.7622C113.296 49.0241 112.313 49.9402 111.051 50.5105C109.789 51.0824 108.318 51.3683 106.637 51.3683ZM105.781 37.6386H105.266C104.749 37.6386 104.397 37.7481 104.21 37.9671C104.022 38.1861 103.929 38.5618 103.929 39.0943V46.8311C103.929 47.3542 104.022 47.7291 104.21 47.956C104.397 48.1828 104.749 48.2963 105.266 48.2963H105.805C107.476 48.2963 108.771 47.8859 109.69 47.0651C110.608 46.2443 111.068 44.8217 111.068 42.7973C111.068 41.4456 110.859 40.3964 110.441 39.6496C110.022 38.9029 109.418 38.3814 108.629 38.0852C107.84 37.7875 106.89 37.6386 105.781 37.6386ZM125.464 45.3896V50.7468C125.464 50.9816 125.415 51.1438 125.317 51.2336C125.219 51.3234 125.053 51.3683 124.819 51.3683H122.323C122.088 51.3683 121.922 51.3234 121.824 51.2336C121.727 51.1438 121.678 50.9816 121.678 50.7468V45.4582L119.346 42.75C118.789 42.1025 118.322 41.5204 117.944 41.0037C117.565 40.4885 117.281 39.9553 117.094 39.4039C116.906 38.8525 116.812 38.2058 116.812 37.4637V36.4311C116.812 36.2058 116.852 36.0341 116.93 35.9159C117.282 35.4007 117.774 34.858 118.407 34.2877C118.524 34.1932 118.63 34.1459 118.724 34.1459C118.817 34.1459 118.915 34.1932 119.017 34.2877C119.361 34.5839 119.65 34.8667 119.884 35.1361C120.119 35.4055 120.322 35.6654 120.494 35.9159C120.571 36.0419 120.61 36.2137 120.61 36.4311V37.4519C120.61 37.9592 120.759 38.5216 121.056 39.1392C121.354 39.7568 121.854 40.4373 122.557 41.1809L123.694 42.3767L124.807 41.1809C125.44 40.5004 125.923 39.8513 126.255 39.2337C126.588 38.6162 126.754 38.0262 126.754 37.4637V36.4311C126.754 36.2058 126.793 36.0341 126.872 35.9159C127.208 35.4086 127.684 34.8659 128.302 34.2877C128.418 34.1932 128.516 34.1459 128.595 34.1459C128.688 34.1459 128.785 34.1932 128.888 34.2877C129.216 34.5839 129.495 34.8667 129.727 35.1361C129.957 35.4055 130.154 35.6654 130.317 35.9159C130.396 36.0419 130.436 36.2137 130.436 36.4311V37.4637C130.436 38.3239 130.248 39.1463 129.873 39.9308C129.497 40.717 128.859 41.6102 127.961 42.6106L125.464 45.3896Z" fill="#14DF83"/>
</g>
<defs>
<clipPath id="clip0_69_34">
<rect width="137" height="55.3882" fill="#14DF83"/>
</clipPath>
</defs>
</svg>
